<?xml version="1.0" encoding="UTF-8" ?>
<svg version="1.1" width="64" height="32" xmlns="http://www.w3.org/2000/svg" shape-rendering="crispEdges">
<rect x="15" y="9" width="1" height="1" fill="#3486F7" />
<rect x="16" y="9" width="1" height="1" fill="#3486F7" />
<rect x="17" y="9" width="1" height="1" fill="#3486F7" />
<rect x="18" y="9" width="1" height="1" fill="#3486F7" />
<rect x="19" y="9" width="1" height="1" fill="#3486F7" />
<rect x="20" y="9" width="1" height="1" fill="#3486F7" />
<rect x="21" y="9" width="1" height="1" fill="#3486F7" />
<rect x="30" y="9" width="1" height="1" fill="#3486F7" />
<rect x="31" y="9" width="1" height="1" fill="#3486F7" />
<rect x="32" y="9" width="1" height="1" fill="#3486F7" />
<rect x="33" y="9" width="1" height="1" fill="#3486F7" />
<rect x="40" y="9" width="1" height="1" fill="#3486F7" />
<rect x="41" y="9" width="1" height="1" fill="#3486F7" />
<rect x="42" y="9" width="1" height="1" fill="#3486F7" />
<rect x="43" y="9" width="1" height="1" fill="#3486F7" />
<rect x="44" y="9" width="1" height="1" fill="#3486F7" />
<rect x="45" y="9" width="1" height="1" fill="#3486F7" />
<rect x="46" y="9" width="1" height="1" fill="#3486F7" />
<rect x="47" y="9" width="1" height="1" fill="#3486F7" />
<rect x="48" y="9" width="1" height="1" fill="#3486F7" />
<rect x="53" y="9" width="1" height="1" fill="#3486F7" />
<rect x="54" y="9" width="1" height="1" fill="#3486F7" />
<rect x="55" y="9" width="1" height="1" fill="#3486F7" />
<rect x="56" y="9" width="1" height="1" fill="#3486F7" />
<rect x="57" y="9" width="1" height="1" fill="#3486F7" />
<rect x="58" y="9" width="1" height="1" fill="#3486F7" />
<rect x="59" y="9" width="1" height="1" fill="#3486F7" />
<rect x="60" y="9" width="1" height="1" fill="#3486F7" />
<rect x="61" y="9" width="1" height="1" fill="#3486F7" />
<rect x="14" y="10" width="1" height="1" fill="#3486F7" />
<rect x="15" y="10" width="1" height="1" fill="#3486F7" />
<rect x="16" y="10" width="1" height="1" fill="#3486F7" />
<rect x="17" y="10" width="1" height="1" fill="#3486F7" />
<rect x="18" y="10" width="1" height="1" fill="#3486F7" />
<rect x="19" y="10" width="1" height="1" fill="#3486F7" />
<rect x="20" y="10" width="1" height="1" fill="#3486F7" />
<rect x="21" y="10" width="1" height="1" fill="#3486F7" />
<rect x="22" y="10" width="1" height="1" fill="#3486F7" />
<rect x="28" y="10" width="1" height="1" fill="#3486F7" />
<rect x="29" y="10" width="1" height="1" fill="#3486F7" />
<rect x="34" y="10" width="1" height="1" fill="#3486F7" />
<rect x="35" y="10" width="1" height="1" fill="#3486F7" />
<rect x="40" y="10" width="1" height="1" fill="#3486F7" />
<rect x="41" y="10" width="1" height="1" fill="#3486F7" />
<rect x="42" y="10" width="1" height="1" fill="#3486F7" />
<rect x="43" y="10" width="1" height="1" fill="#3486F7" />
<rect x="44" y="10" width="1" height="1" fill="#3486F7" />
<rect x="45" y="10" width="1" height="1" fill="#3486F7" />
<rect x="46" y="10" width="1" height="1" fill="#3486F7" />
<rect x="47" y="10" width="1" height="1" fill="#3486F7" />
<rect x="48" y="10" width="1" height="1" fill="#3486F7" />
<rect x="49" y="10" width="1" height="1" fill="#3486F7" />
<rect x="52" y="10" width="1" height="1" fill="#3486F7" />
<rect x="53" y="10" width="1" height="1" fill="#3486F7" />
<rect x="54" y="10" width="1" height="1" fill="#3486F7" />
<rect x="55" y="10" width="1" height="1" fill="#3486F7" />
<rect x="56" y="10" width="1" height="1" fill="#3486F7" />
<rect x="57" y="10" width="1" height="1" fill="#3486F7" />
<rect x="58" y="10" width="1" height="1" fill="#3486F7" />
<rect x="59" y="10" width="1" height="1" fill="#3486F7" />
<rect x="60" y="10" width="1" height="1" fill="#3486F7" />
<rect x="61" y="10" width="1" height="1" fill="#3486F7" />
<rect x="13" y="11" width="1" height="1" fill="#3486F7" />
<rect x="14" y="11" width="1" height="1" fill="#3486F7" />
<rect x="15" y="11" width="1" height="1" fill="#3486F7" />
<rect x="16" y="11" width="1" height="1" fill="#3486F7" />
<rect x="17" y="11" width="1" height="1" fill="#3486F7" />
<rect x="18" y="11" width="1" height="1" fill="#3486F7" />
<rect x="19" y="11" width="1" height="1" fill="#3486F7" />
<rect x="20" y="11" width="1" height="1" fill="#3486F7" />
<rect x="21" y="11" width="1" height="1" fill="#3486F7" />
<rect x="22" y="11" width="1" height="1" fill="#3486F7" />
<rect x="23" y="11" width="1" height="1" fill="#3486F7" />
<rect x="27" y="11" width="1" height="1" fill="#3486F7" />
<rect x="36" y="11" width="1" height="1" fill="#3486F7" />
<rect x="40" y="11" width="1" height="1" fill="#3486F7" />
<rect x="41" y="11" width="1" height="1" fill="#3486F7" />
<rect x="42" y="11" width="1" height="1" fill="#3486F7" />
<rect x="43" y="11" width="1" height="1" fill="#3486F7" />
<rect x="44" y="11" width="1" height="1" fill="#3486F7" />
<rect x="45" y="11" width="1" height="1" fill="#3486F7" />
<rect x="46" y="11" width="1" height="1" fill="#3486F7" />
<rect x="47" y="11" width="1" height="1" fill="#3486F7" />
<rect x="48" y="11" width="1" height="1" fill="#3486F7" />
<rect x="49" y="11" width="1" height="1" fill="#3486F7" />
<rect x="50" y="11" width="1" height="1" fill="#3486F7" />
<rect x="52" y="11" width="1" height="1" fill="#3486F7" />
<rect x="53" y="11" width="1" height="1" fill="#3486F7" />
<rect x="54" y="11" width="1" height="1" fill="#3486F7" />
<rect x="55" y="11" width="1" height="1" fill="#3486F7" />
<rect x="56" y="11" width="1" height="1" fill="#3486F7" />
<rect x="57" y="11" width="1" height="1" fill="#3486F7" />
<rect x="58" y="11" width="1" height="1" fill="#3486F7" />
<rect x="59" y="11" width="1" height="1" fill="#3486F7" />
<rect x="60" y="11" width="1" height="1" fill="#3486F7" />
<rect x="61" y="11" width="1" height="1" fill="#3486F7" />
<rect x="13" y="12" width="1" height="1" fill="#3486F7" />
<rect x="14" y="12" width="1" height="1" fill="#3486F7" />
<rect x="15" y="12" width="1" height="1" fill="#3486F7" />
<rect x="16" y="12" width="1" height="1" fill="#3486F7" />
<rect x="17" y="12" width="1" height="1" fill="#3486F7" />
<rect x="18" y="12" width="1" height="1" fill="#3486F7" />
<rect x="19" y="12" width="1" height="1" fill="#3486F7" />
<rect x="20" y="12" width="1" height="1" fill="#3486F7" />
<rect x="21" y="12" width="1" height="1" fill="#3486F7" />
<rect x="22" y="12" width="1" height="1" fill="#3486F7" />
<rect x="23" y="12" width="1" height="1" fill="#3486F7" />
<rect x="26" y="12" width="1" height="1" fill="#3486F7" />
<rect x="31" y="12" width="1" height="1" fill="#3486F7" />
<rect x="32" y="12" width="1" height="1" fill="#3486F7" />
<rect x="37" y="12" width="1" height="1" fill="#3486F7" />
<rect x="40" y="12" width="1" height="1" fill="#3486F7" />
<rect x="41" y="12" width="1" height="1" fill="#3486F7" />
<rect x="42" y="12" width="1" height="1" fill="#3486F7" />
<rect x="47" y="12" width="1" height="1" fill="#3486F7" />
<rect x="48" y="12" width="1" height="1" fill="#3486F7" />
<rect x="49" y="12" width="1" height="1" fill="#3486F7" />
<rect x="50" y="12" width="1" height="1" fill="#3486F7" />
<rect x="52" y="12" width="1" height="1" fill="#3486F7" />
<rect x="53" y="12" width="1" height="1" fill="#3486F7" />
<rect x="54" y="12" width="1" height="1" fill="#3486F7" />
<rect x="55" y="12" width="1" height="1" fill="#3486F7" />
<rect x="6" y="13" width="1" height="1" fill="#995500" />
<rect x="7" y="13" width="1" height="1" fill="#995500" />
<rect x="8" y="13" width="1" height="1" fill="#995500" />
<rect x="9" y="13" width="1" height="1" fill="#995500" />
<rect x="13" y="13" width="1" height="1" fill="#3486F7" />
<rect x="14" y="13" width="1" height="1" fill="#3486F7" />
<rect x="15" y="13" width="1" height="1" fill="#3486F7" />
<rect x="16" y="13" width="1" height="1" fill="#3486F7" />
<rect x="21" y="13" width="1" height="1" fill="#3486F7" />
<rect x="22" y="13" width="1" height="1" fill="#3486F7" />
<rect x="23" y="13" width="1" height="1" fill="#3486F7" />
<rect x="26" y="13" width="1" height="1" fill="#3486F7" />
<rect x="30" y="13" width="1" height="1" fill="#3486F7" />
<rect x="31" y="13" width="1" height="1" fill="#3486F7" />
<rect x="32" y="13" width="1" height="1" fill="#3486F7" />
<rect x="33" y="13" width="1" height="1" fill="#3486F7" />
<rect x="37" y="13" width="1" height="1" fill="#3486F7" />
<rect x="40" y="13" width="1" height="1" fill="#3486F7" />
<rect x="41" y="13" width="1" height="1" fill="#3486F7" />
<rect x="42" y="13" width="1" height="1" fill="#3486F7" />
<rect x="48" y="13" width="1" height="1" fill="#3486F7" />
<rect x="49" y="13" width="1" height="1" fill="#3486F7" />
<rect x="50" y="13" width="1" height="1" fill="#3486F7" />
<rect x="52" y="13" width="1" height="1" fill="#3486F7" />
<rect x="53" y="13" width="1" height="1" fill="#3486F7" />
<rect x="54" y="13" width="1" height="1" fill="#3486F7" />
<rect x="55" y="13" width="1" height="1" fill="#3486F7" />
<rect x="3" y="14" width="1" height="1" fill="#995500" />
<rect x="4" y="14" width="1" height="1" fill="#995500" />
<rect x="5" y="14" width="1" height="1" fill="#995500" />
<rect x="6" y="14" width="1" height="1" fill="#9C782E" />
<rect x="7" y="14" width="1" height="1" fill="#D9AA52" />
<rect x="8" y="14" width="1" height="1" fill="#C8973A" />
<rect x="9" y="14" width="1" height="1" fill="#AE8543" />
<rect x="10" y="14" width="1" height="1" fill="#995500" />
<rect x="13" y="14" width="1" height="1" fill="#3486F7" />
<rect x="14" y="14" width="1" height="1" fill="#3486F7" />
<rect x="15" y="14" width="1" height="1" fill="#3486F7" />
<rect x="16" y="14" width="1" height="1" fill="#3486F7" />
<rect x="25" y="14" width="1" height="1" fill="#3486F7" />
<rect x="29" y="14" width="1" height="1" fill="#3486F7" />
<rect x="30" y="14" width="1" height="1" fill="#3486F7" />
<rect x="31" y="14" width="1" height="1" fill="#3486F7" />
<rect x="32" y="14" width="1" height="1" fill="#3486F7" />
<rect x="33" y="14" width="1" height="1" fill="#3486F7" />
<rect x="34" y="14" width="1" height="1" fill="#3486F7" />
<rect x="38" y="14" width="1" height="1" fill="#3486F7" />
<rect x="40" y="14" width="1" height="1" fill="#3486F7" />
<rect x="41" y="14" width="1" height="1" fill="#3486F7" />
<rect x="42" y="14" width="1" height="1" fill="#3486F7" />
<rect x="48" y="14" width="1" height="1" fill="#3486F7" />
<rect x="49" y="14" width="1" height="1" fill="#3486F7" />
<rect x="50" y="14" width="1" height="1" fill="#3486F7" />
<rect x="52" y="14" width="1" height="1" fill="#3486F7" />
<rect x="53" y="14" width="1" height="1" fill="#3486F7" />
<rect x="54" y="14" width="1" height="1" fill="#3486F7" />
<rect x="55" y="14" width="1" height="1" fill="#3486F7" />
<rect x="2" y="15" width="1" height="1" fill="#995500" />
<rect x="3" y="15" width="1" height="1" fill="#A07531" />
<rect x="4" y="15" width="1" height="1" fill="#B08447" />
<rect x="5" y="15" width="1" height="1" fill="#D9AA52" />
<rect x="6" y="15" width="1" height="1" fill="#D9AA52" />
<rect x="7" y="15" width="1" height="1" fill="#C8973A" />
<rect x="8" y="15" width="1" height="1" fill="#D9AA52" />
<rect x="9" y="15" width="1" height="1" fill="#D9AA52" />
<rect x="10" y="15" width="1" height="1" fill="#C69838" />
<rect x="11" y="15" width="1" height="1" fill="#995500" />
<rect x="13" y="15" width="1" height="1" fill="#3486F7" />
<rect x="14" y="15" width="1" height="1" fill="#3486F7" />
<rect x="15" y="15" width="1" height="1" fill="#3486F7" />
<rect x="16" y="15" width="1" height="1" fill="#3486F7" />
<rect x="25" y="15" width="1" height="1" fill="#3486F7" />
<rect x="28" y="15" width="1" height="1" fill="#3486F7" />
<rect x="29" y="15" width="1" height="1" fill="#3486F7" />
<rect x="30" y="15" width="1" height="1" fill="#3486F7" />
<rect x="31" y="15" width="1" height="1" fill="#3486F7" />
<rect x="32" y="15" width="1" height="1" fill="#3486F7" />
<rect x="33" y="15" width="1" height="1" fill="#3486F7" />
<rect x="34" y="15" width="1" height="1" fill="#3486F7" />
<rect x="35" y="15" width="1" height="1" fill="#3486F7" />
<rect x="38" y="15" width="1" height="1" fill="#3486F7" />
<rect x="40" y="15" width="1" height="1" fill="#3486F7" />
<rect x="41" y="15" width="1" height="1" fill="#3486F7" />
<rect x="42" y="15" width="1" height="1" fill="#3486F7" />
<rect x="48" y="15" width="1" height="1" fill="#3486F7" />
<rect x="49" y="15" width="1" height="1" fill="#3486F7" />
<rect x="50" y="15" width="1" height="1" fill="#3486F7" />
<rect x="52" y="15" width="1" height="1" fill="#3486F7" />
<rect x="53" y="15" width="1" height="1" fill="#3486F7" />
<rect x="54" y="15" width="1" height="1" fill="#3486F7" />
<rect x="55" y="15" width="1" height="1" fill="#3486F7" />
<rect x="56" y="15" width="1" height="1" fill="#3486F7" />
<rect x="57" y="15" width="1" height="1" fill="#3486F7" />
<rect x="58" y="15" width="1" height="1" fill="#3486F7" />
<rect x="59" y="15" width="1" height="1" fill="#3486F7" />
<rect x="60" y="15" width="1" height="1" fill="#3486F7" />
<rect x="1" y="16" width="1" height="1" fill="#995500" />
<rect x="2" y="16" width="1" height="1" fill="#D9AA52" />
<rect x="3" y="16" width="1" height="1" fill="#E9BA62" />
<rect x="4" y="16" width="1" height="1" fill="#E9BA62" />
<rect x="5" y="16" width="1" height="1" fill="#E9BA62" />
<rect x="6" y="16" width="1" height="1" fill="#D9AA52" />
<rect x="7" y="16" width="1" height="1" fill="#D9AA52" />
<rect x="8" y="16" width="1" height="1" fill="#D9AA52" />
<rect x="9" y="16" width="1" height="1" fill="#C69838" />
<rect x="10" y="16" width="1" height="1" fill="#C69838" />
<rect x="11" y="16" width="1" height="1" fill="#6B3707" />
<rect x="13" y="16" width="1" height="1" fill="#3486F7" />
<rect x="14" y="16" width="1" height="1" fill="#3486F7" />
<rect x="15" y="16" width="1" height="1" fill="#3486F7" />
<rect x="16" y="16" width="1" height="1" fill="#3486F7" />
<rect x="25" y="16" width="1" height="1" fill="#3486F7" />
<rect x="28" y="16" width="1" height="1" fill="#3486F7" />
<rect x="29" y="16" width="1" height="1" fill="#3486F7" />
<rect x="30" y="16" width="1" height="1" fill="#3486F7" />
<rect x="31" y="16" width="1" height="1" fill="#3486F7" />
<rect x="32" y="16" width="1" height="1" fill="#3486F7" />
<rect x="33" y="16" width="1" height="1" fill="#3486F7" />
<rect x="34" y="16" width="1" height="1" fill="#3486F7" />
<rect x="35" y="16" width="1" height="1" fill="#3486F7" />
<rect x="38" y="16" width="1" height="1" fill="#3486F7" />
<rect x="40" y="16" width="1" height="1" fill="#3486F7" />
<rect x="41" y="16" width="1" height="1" fill="#3486F7" />
<rect x="42" y="16" width="1" height="1" fill="#3486F7" />
<rect x="48" y="16" width="1" height="1" fill="#3486F7" />
<rect x="49" y="16" width="1" height="1" fill="#3486F7" />
<rect x="50" y="16" width="1" height="1" fill="#3486F7" />
<rect x="52" y="16" width="1" height="1" fill="#3486F7" />
<rect x="53" y="16" width="1" height="1" fill="#3486F7" />
<rect x="54" y="16" width="1" height="1" fill="#3486F7" />
<rect x="55" y="16" width="1" height="1" fill="#3486F7" />
<rect x="56" y="16" width="1" height="1" fill="#3486F7" />
<rect x="57" y="16" width="1" height="1" fill="#3486F7" />
<rect x="58" y="16" width="1" height="1" fill="#3486F7" />
<rect x="59" y="16" width="1" height="1" fill="#3486F7" />
<rect x="60" y="16" width="1" height="1" fill="#3486F7" />
<rect x="0" y="17" width="1" height="1" fill="#995500" />
<rect x="1" y="17" width="1" height="1" fill="#C89738" />
<rect x="2" y="17" width="1" height="1" fill="#E9BA62" />
<rect x="3" y="17" width="1" height="1" fill="#F8D186" />
<rect x="4" y="17" width="1" height="1" fill="#F8D186" />
<rect x="5" y="17" width="1" height="1" fill="#E9BA62" />
<rect x="6" y="17" width="1" height="1" fill="#D9AA52" />
<rect x="7" y="17" width="1" height="1" fill="#D9AA52" />
<rect x="8" y="17" width="1" height="1" fill="#D9AA52" />
<rect x="9" y="17" width="1" height="1" fill="#C69838" />
<rect x="10" y="17" width="1" height="1" fill="#866842" />
<rect x="11" y="17" width="1" height="1" fill="#6B3707" />
<rect x="13" y="17" width="1" height="1" fill="#3486F7" />
<rect x="14" y="17" width="1" height="1" fill="#3486F7" />
<rect x="15" y="17" width="1" height="1" fill="#3486F7" />
<rect x="16" y="17" width="1" height="1" fill="#3486F7" />
<rect x="25" y="17" width="1" height="1" fill="#3486F7" />
<rect x="29" y="17" width="1" height="1" fill="#3486F7" />
<rect x="30" y="17" width="1" height="1" fill="#3486F7" />
<rect x="31" y="17" width="1" height="1" fill="#3486F7" />
<rect x="32" y="17" width="1" height="1" fill="#3486F7" />
<rect x="33" y="17" width="1" height="1" fill="#3486F7" />
<rect x="34" y="17" width="1" height="1" fill="#3486F7" />
<rect x="38" y="17" width="1" height="1" fill="#3486F7" />
<rect x="40" y="17" width="1" height="1" fill="#3486F7" />
<rect x="41" y="17" width="1" height="1" fill="#3486F7" />
<rect x="42" y="17" width="1" height="1" fill="#3486F7" />
<rect x="48" y="17" width="1" height="1" fill="#3486F7" />
<rect x="49" y="17" width="1" height="1" fill="#3486F7" />
<rect x="50" y="17" width="1" height="1" fill="#3486F7" />
<rect x="52" y="17" width="1" height="1" fill="#3486F7" />
<rect x="53" y="17" width="1" height="1" fill="#3486F7" />
<rect x="54" y="17" width="1" height="1" fill="#3486F7" />
<rect x="55" y="17" width="1" height="1" fill="#3486F7" />
<rect x="0" y="18" width="1" height="1" fill="#995500" />
<rect x="1" y="18" width="1" height="1" fill="#DCAA53" />
<rect x="2" y="18" width="1" height="1" fill="#E9BA62" />
<rect x="3" y="18" width="1" height="1" fill="#F8D186" />
<rect x="4" y="18" width="1" height="1" fill="#F8D186" />
<rect x="5" y="18" width="1" height="1" fill="#D9AA52" />
<rect x="6" y="18" width="1" height="1" fill="#D9AA52" />
<rect x="7" y="18" width="1" height="1" fill="#D9AA52" />
<rect x="8" y="18" width="1" height="1" fill="#C69838" />
<rect x="9" y="18" width="1" height="1" fill="#A0762E" />
<rect x="10" y="18" width="1" height="1" fill="#A0762E" />
<rect x="11" y="18" width="1" height="1" fill="#6B3707" />
<rect x="13" y="18" width="1" height="1" fill="#3486F7" />
<rect x="14" y="18" width="1" height="1" fill="#3486F7" />
<rect x="15" y="18" width="1" height="1" fill="#3486F7" />
<rect x="16" y="18" width="1" height="1" fill="#3486F7" />
<rect x="21" y="18" width="1" height="1" fill="#3486F7" />
<rect x="22" y="18" width="1" height="1" fill="#3486F7" />
<rect x="23" y="18" width="1" height="1" fill="#3486F7" />
<rect x="26" y="18" width="1" height="1" fill="#3486F7" />
<rect x="30" y="18" width="1" height="1" fill="#3486F7" />
<rect x="31" y="18" width="1" height="1" fill="#3486F7" />
<rect x="32" y="18" width="1" height="1" fill="#3486F7" />
<rect x="33" y="18" width="1" height="1" fill="#3486F7" />
<rect x="37" y="18" width="1" height="1" fill="#3486F7" />
<rect x="40" y="18" width="1" height="1" fill="#3486F7" />
<rect x="41" y="18" width="1" height="1" fill="#3486F7" />
<rect x="42" y="18" width="1" height="1" fill="#3486F7" />
<rect x="48" y="18" width="1" height="1" fill="#3486F7" />
<rect x="49" y="18" width="1" height="1" fill="#3486F7" />
<rect x="50" y="18" width="1" height="1" fill="#3486F7" />
<rect x="52" y="18" width="1" height="1" fill="#3486F7" />
<rect x="53" y="18" width="1" height="1" fill="#3486F7" />
<rect x="54" y="18" width="1" height="1" fill="#3486F7" />
<rect x="55" y="18" width="1" height="1" fill="#3486F7" />
<rect x="0" y="19" width="1" height="1" fill="#6B3707" />
<rect x="1" y="19" width="1" height="1" fill="#C89738" />
<rect x="2" y="19" width="1" height="1" fill="#B08443" />
<rect x="3" y="19" width="1" height="1" fill="#E9BA62" />
<rect x="4" y="19" width="1" height="1" fill="#D9AA52" />
<rect x="5" y="19" width="1" height="1" fill="#D9AA52" />
<rect x="6" y="19" width="1" height="1" fill="#B18345" />
<rect x="7" y="19" width="1" height="1" fill="#C69838" />
<rect x="8" y="19" width="1" height="1" fill="#A0762E" />
<rect x="9" y="19" width="1" height="1" fill="#A0762E" />
<rect x="10" y="19" width="1" height="1" fill="#6B3707" />
<rect x="13" y="19" width="1" height="1" fill="#3486F7" />
<rect x="14" y="19" width="1" height="1" fill="#3486F7" />
<rect x="15" y="19" width="1" height="1" fill="#3486F7" />
<rect x="16" y="19" width="1" height="1" fill="#3486F7" />
<rect x="17" y="19" width="1" height="1" fill="#3486F7" />
<rect x="18" y="19" width="1" height="1" fill="#3486F7" />
<rect x="19" y="19" width="1" height="1" fill="#3486F7" />
<rect x="20" y="19" width="1" height="1" fill="#3486F7" />
<rect x="21" y="19" width="1" height="1" fill="#3486F7" />
<rect x="22" y="19" width="1" height="1" fill="#3486F7" />
<rect x="23" y="19" width="1" height="1" fill="#3486F7" />
<rect x="26" y="19" width="1" height="1" fill="#3486F7" />
<rect x="31" y="19" width="1" height="1" fill="#3486F7" />
<rect x="32" y="19" width="1" height="1" fill="#3486F7" />
<rect x="37" y="19" width="1" height="1" fill="#3486F7" />
<rect x="40" y="19" width="1" height="1" fill="#3486F7" />
<rect x="41" y="19" width="1" height="1" fill="#3486F7" />
<rect x="42" y="19" width="1" height="1" fill="#3486F7" />
<rect x="47" y="19" width="1" height="1" fill="#3486F7" />
<rect x="48" y="19" width="1" height="1" fill="#3486F7" />
<rect x="49" y="19" width="1" height="1" fill="#3486F7" />
<rect x="50" y="19" width="1" height="1" fill="#3486F7" />
<rect x="52" y="19" width="1" height="1" fill="#3486F7" />
<rect x="53" y="19" width="1" height="1" fill="#3486F7" />
<rect x="54" y="19" width="1" height="1" fill="#3486F7" />
<rect x="55" y="19" width="1" height="1" fill="#3486F7" />
<rect x="0" y="20" width="1" height="1" fill="#6B3707" />
<rect x="1" y="20" width="1" height="1" fill="#9D7730" />
<rect x="2" y="20" width="1" height="1" fill="#B08443" />
<rect x="3" y="20" width="1" height="1" fill="#C69838" />
<rect x="4" y="20" width="1" height="1" fill="#D9AA52" />
<rect x="5" y="20" width="1" height="1" fill="#C69838" />
<rect x="6" y="20" width="1" height="1" fill="#C69838" />
<rect x="7" y="20" width="1" height="1" fill="#A0762E" />
<rect x="8" y="20" width="1" height="1" fill="#6B3707" />
<rect x="9" y="20" width="1" height="1" fill="#6B3707" />
<rect x="13" y="20" width="1" height="1" fill="#3486F7" />
<rect x="14" y="20" width="1" height="1" fill="#3486F7" />
<rect x="15" y="20" width="1" height="1" fill="#3486F7" />
<rect x="16" y="20" width="1" height="1" fill="#3486F7" />
<rect x="17" y="20" width="1" height="1" fill="#3486F7" />
<rect x="18" y="20" width="1" height="1" fill="#3486F7" />
<rect x="19" y="20" width="1" height="1" fill="#3486F7" />
<rect x="20" y="20" width="1" height="1" fill="#3486F7" />
<rect x="21" y="20" width="1" height="1" fill="#3486F7" />
<rect x="22" y="20" width="1" height="1" fill="#3486F7" />
<rect x="23" y="20" width="1" height="1" fill="#3486F7" />
<rect x="27" y="20" width="1" height="1" fill="#3486F7" />
<rect x="36" y="20" width="1" height="1" fill="#3486F7" />
<rect x="40" y="20" width="1" height="1" fill="#3486F7" />
<rect x="41" y="20" width="1" height="1" fill="#3486F7" />
<rect x="42" y="20" width="1" height="1" fill="#3486F7" />
<rect x="43" y="20" width="1" height="1" fill="#3486F7" />
<rect x="44" y="20" width="1" height="1" fill="#3486F7" />
<rect x="45" y="20" width="1" height="1" fill="#3486F7" />
<rect x="46" y="20" width="1" height="1" fill="#3486F7" />
<rect x="47" y="20" width="1" height="1" fill="#3486F7" />
<rect x="48" y="20" width="1" height="1" fill="#3486F7" />
<rect x="49" y="20" width="1" height="1" fill="#3486F7" />
<rect x="50" y="20" width="1" height="1" fill="#3486F7" />
<rect x="52" y="20" width="1" height="1" fill="#3486F7" />
<rect x="53" y="20" width="1" height="1" fill="#3486F7" />
<rect x="54" y="20" width="1" height="1" fill="#3486F7" />
<rect x="55" y="20" width="1" height="1" fill="#3486F7" />
<rect x="56" y="20" width="1" height="1" fill="#3486F7" />
<rect x="57" y="20" width="1" height="1" fill="#3486F7" />
<rect x="58" y="20" width="1" height="1" fill="#3486F7" />
<rect x="59" y="20" width="1" height="1" fill="#3486F7" />
<rect x="60" y="20" width="1" height="1" fill="#3486F7" />
<rect x="61" y="20" width="1" height="1" fill="#3486F7" />
<rect x="1" y="21" width="1" height="1" fill="#6B3707" />
<rect x="2" y="21" width="1" height="1" fill="#86693F" />
<rect x="3" y="21" width="1" height="1" fill="#B08443" />
<rect x="4" y="21" width="1" height="1" fill="#B08443" />
<rect x="5" y="21" width="1" height="1" fill="#A0762E" />
<rect x="6" y="21" width="1" height="1" fill="#6B3707" />
<rect x="7" y="21" width="1" height="1" fill="#6B3707" />
<rect x="14" y="21" width="1" height="1" fill="#3486F7" />
<rect x="15" y="21" width="1" height="1" fill="#3486F7" />
<rect x="16" y="21" width="1" height="1" fill="#3486F7" />
<rect x="17" y="21" width="1" height="1" fill="#3486F7" />
<rect x="18" y="21" width="1" height="1" fill="#3486F7" />
<rect x="19" y="21" width="1" height="1" fill="#3486F7" />
<rect x="20" y="21" width="1" height="1" fill="#3486F7" />
<rect x="21" y="21" width="1" height="1" fill="#3486F7" />
<rect x="22" y="21" width="1" height="1" fill="#3486F7" />
<rect x="28" y="21" width="1" height="1" fill="#3486F7" />
<rect x="29" y="21" width="1" height="1" fill="#3486F7" />
<rect x="34" y="21" width="1" height="1" fill="#3486F7" />
<rect x="35" y="21" width="1" height="1" fill="#3486F7" />
<rect x="40" y="21" width="1" height="1" fill="#3486F7" />
<rect x="41" y="21" width="1" height="1" fill="#3486F7" />
<rect x="42" y="21" width="1" height="1" fill="#3486F7" />
<rect x="43" y="21" width="1" height="1" fill="#3486F7" />
<rect x="44" y="21" width="1" height="1" fill="#3486F7" />
<rect x="45" y="21" width="1" height="1" fill="#3486F7" />
<rect x="46" y="21" width="1" height="1" fill="#3486F7" />
<rect x="47" y="21" width="1" height="1" fill="#3486F7" />
<rect x="48" y="21" width="1" height="1" fill="#3486F7" />
<rect x="49" y="21" width="1" height="1" fill="#3486F7" />
<rect x="52" y="21" width="1" height="1" fill="#3486F7" />
<rect x="53" y="21" width="1" height="1" fill="#3486F7" />
<rect x="54" y="21" width="1" height="1" fill="#3486F7" />
<rect x="55" y="21" width="1" height="1" fill="#3486F7" />
<rect x="56" y="21" width="1" height="1" fill="#3486F7" />
<rect x="57" y="21" width="1" height="1" fill="#3486F7" />
<rect x="58" y="21" width="1" height="1" fill="#3486F7" />
<rect x="59" y="21" width="1" height="1" fill="#3486F7" />
<rect x="60" y="21" width="1" height="1" fill="#3486F7" />
<rect x="61" y="21" width="1" height="1" fill="#3486F7" />
<rect x="2" y="22" width="1" height="1" fill="#6B3707" />
<rect x="3" y="22" width="1" height="1" fill="#6B3707" />
<rect x="4" y="22" width="1" height="1" fill="#6B3707" />
<rect x="5" y="22" width="1" height="1" fill="#6B3707" />
<rect x="15" y="22" width="1" height="1" fill="#3486F7" />
<rect x="16" y="22" width="1" height="1" fill="#3486F7" />
<rect x="17" y="22" width="1" height="1" fill="#3486F7" />
<rect x="18" y="22" width="1" height="1" fill="#3486F7" />
<rect x="19" y="22" width="1" height="1" fill="#3486F7" />
<rect x="20" y="22" width="1" height="1" fill="#3486F7" />
<rect x="21" y="22" width="1" height="1" fill="#3486F7" />
<rect x="30" y="22" width="1" height="1" fill="#3486F7" />
<rect x="31" y="22" width="1" height="1" fill="#3486F7" />
<rect x="32" y="22" width="1" height="1" fill="#3486F7" />
<rect x="33" y="22" width="1" height="1" fill="#3486F7" />
<rect x="40" y="22" width="1" height="1" fill="#3486F7" />
<rect x="41" y="22" width="1" height="1" fill="#3486F7" />
<rect x="42" y="22" width="1" height="1" fill="#3486F7" />
<rect x="43" y="22" width="1" height="1" fill="#3486F7" />
<rect x="44" y="22" width="1" height="1" fill="#3486F7" />
<rect x="45" y="22" width="1" height="1" fill="#3486F7" />
<rect x="46" y="22" width="1" height="1" fill="#3486F7" />
<rect x="47" y="22" width="1" height="1" fill="#3486F7" />
<rect x="48" y="22" width="1" height="1" fill="#3486F7" />
<rect x="53" y="22" width="1" height="1" fill="#3486F7" />
<rect x="54" y="22" width="1" height="1" fill="#3486F7" />
<rect x="55" y="22" width="1" height="1" fill="#3486F7" />
<rect x="56" y="22" width="1" height="1" fill="#3486F7" />
<rect x="57" y="22" width="1" height="1" fill="#3486F7" />
<rect x="58" y="22" width="1" height="1" fill="#3486F7" />
<rect x="59" y="22" width="1" height="1" fill="#3486F7" />
<rect x="60" y="22" width="1" height="1" fill="#3486F7" />
<rect x="61" y="22" width="1" height="1" fill="#3486F7" />
</svg>